<svg xmlns="http://www.w3.org/2000/svg" version="1.1" xmlns:xlink="http://www.w3.org/1999/xlink" xmlns:svgjs="http://svgjs.com/svgjs" width="1920" height="1080" preserveAspectRatio="none" viewBox="0 0 1920 1080"><g mask="url(&quot;#SvgjsMask1067&quot;)" fill="none"><rect width="1920" height="1080" x="0" y="0" fill="url(#SvgjsLinearGradient1068)"></rect><path d="M1920 0L1695.1 0L1920 164.58z" fill="rgba(255, 255, 255, .1)"></path><path d="M1695.1 0L1920 164.58L1920 449.28L1658.81 0z" fill="rgba(255, 255, 255, .075)"></path><path d="M1658.81 0L1920 449.28L1920 505.34L1149.57 0z" fill="rgba(255, 255, 255, .05)"></path><path d="M1149.57 0L1920 505.34L1920 729.8399999999999L1061.94 0z" fill="rgba(255, 255, 255, .025)"></path><path d="M0 1080L806.29 1080L0 616.48z" fill="rgba(0, 0, 0, .1)"></path><path d="M0 616.48L806.29 1080L1269.45 1080L0 345.90000000000003z" fill="rgba(0, 0, 0, .075)"></path><path d="M0 345.9000000000001L1269.45 1080L1337.3400000000001 1080L0 177.4300000000001z" fill="rgba(0, 0, 0, .05)"></path><path d="M0 177.43000000000006L1337.3400000000001 1080L1561.0800000000002 1080L0 106.83000000000007z" fill="rgba(0, 0, 0, .025)"></path></g><defs><mask id="SvgjsMask1067"><rect width="1920" height="1080" fill="#ffffff"></rect></mask><linearGradient x1="50%" y1="0%" x2="50%" y2="100%" gradientUnits="userSpaceOnUse" id="SvgjsLinearGradient1068"><stop stop-color="#0e2a47" offset="0"></stop><stop stop-color="#00459e" offset="1"></stop></linearGradient></defs></svg>